<svg width="88" height="88" viewBox="0 0 88 88" fill="none" xmlns="http://www.w3.org/2000/svg">
<g filter="url(#filter0_d_1_182)">
<rect x="12" y="8" width="64" height="64" rx="16" fill="#06B25F"/>
</g>
<path d="M34.56 33.3333L34.5616 49.0733C34.5616 50.5083 35.7031 51.6667 37.1151 51.6667H37.84V57.57C37.84 58.91 38.9995 60 40.3164 60C41.6382 60 42.76 58.91 42.76 57.5683V51.6667H46.04V57.57C46.04 58.91 47.1995 60 48.518 60C49.8399 60 50.96 58.91 50.96 57.5683V51.6667L51.6882 51.665C53.0953 51.665 54.24 50.505 54.24 49.07V33.3333H34.56ZM60.8 35.785C60.8 34.4433 59.6602 33.3333 58.34 33.3333C57.0198 33.3317 55.88 34.445 55.88 35.7867V45.9633C55.88 47.3067 57.0182 48.3333 58.34 48.3333C59.6602 48.3333 60.8 47.3083 60.8 45.9633V35.785ZM32.92 35.785C32.92 34.4433 31.7802 33.3333 30.46 33.3333C29.1398 33.3317 28 34.445 28 35.7867V45.9633C28 47.3067 29.1382 48.3333 30.46 48.3333C31.7802 48.3333 32.92 47.3083 32.92 45.9633V35.785ZM49.2396 23.5983L50.7812 20.5C50.8928 20.28 50.7501 20 50.5139 20C50.4057 20 50.3007 20.0633 50.245 20.175L48.6886 23.305C46.1778 22.0767 42.8764 21.9517 40.113 23.305L38.555 20.175C38.5009 20.0633 38.396 20 38.2861 20C38.0499 20 37.9072 20.28 38.0188 20.5L39.5604 23.5983C36.5346 25.3217 34.56 27.905 34.56 31.665H54.24C54.24 27.905 52.2654 25.3217 49.2396 23.5983ZM40.3016 28.3333C39.849 28.3333 39.48 27.96 39.48 27.5C39.48 27.0433 39.849 26.6667 40.3016 26.6667C40.7543 26.6667 41.12 27.0433 41.12 27.5C41.12 27.96 40.7543 28.3333 40.3016 28.3333ZM48.4984 28.3333C48.0457 28.3333 47.68 27.96 47.68 27.5C47.68 27.0433 48.0457 26.6667 48.4984 26.6667C48.951 26.6667 49.32 27.0433 49.32 27.5C49.32 27.96 48.951 28.3333 48.4984 28.3333Z" fill="white"/>
<defs>
<filter id="filter0_d_1_182" x="0" y="0" width="88" height="88" filterUnits="userSpaceOnUse" color-interpolation-filters="sRGB">
<feFlood flood-opacity="0" result="BackgroundImageFix"/>
<feColorMatrix in="SourceAlpha" type="matrix" values="0 0 0 0 0 0 0 0 0 0 0 0 0 0 0 0 0 0 127 0" result="hardAlpha"/>
<feOffset dy="4"/>
<feGaussianBlur stdDeviation="6"/>
<feColorMatrix type="matrix" values="0 0 0 0 0.161778 0 0 0 0 0.0938889 0 0 0 0 0.433333 0 0 0 0.2 0"/>
<feBlend mode="normal" in2="BackgroundImageFix" result="effect1_dropShadow_1_182"/>
<feBlend mode="normal" in="SourceGraphic" in2="effect1_dropShadow_1_182" result="shape"/>
</filter>
</defs>
</svg>
