<svg width="88" height="88" viewBox="0 0 88 88" fill="none" xmlns="http://www.w3.org/2000/svg">
<g filter="url(#filter0_d_3_184)">
<rect x="12" y="8" width="64" height="64" rx="16" fill="#276ED8"/>
</g>
<path d="M59.16 47.8787C57.9354 51.4888 54.2694 57.8809 50.4928 57.9506C47.9876 57.9996 47.1821 56.4416 44.3185 56.4416C41.4564 56.4416 40.5606 57.9031 38.1924 57.9981C34.1853 58.1548 28 48.7717 28 40.5887C28 33.0724 33.1539 29.3467 37.6565 29.2786C40.0714 29.2343 42.3523 30.9333 43.8246 30.9333C45.3031 30.9333 48.0733 28.8907 50.9852 29.19C52.2035 29.2422 55.6265 29.6887 57.8232 32.9537C51.9948 36.8203 52.9031 44.9066 59.16 47.8787ZM51.0241 20C46.6212 20.1805 43.0285 24.8752 43.5301 28.7577C47.5996 29.0791 51.504 24.443 51.0241 20Z" fill="white"/>
<defs>
<filter id="filter0_d_3_184" x="0" y="0" width="88" height="88" filterUnits="userSpaceOnUse" color-interpolation-filters="sRGB">
<feFlood flood-opacity="0" result="BackgroundImageFix"/>
<feColorMatrix in="SourceAlpha" type="matrix" values="0 0 0 0 0 0 0 0 0 0 0 0 0 0 0 0 0 0 127 0" result="hardAlpha"/>
<feOffset dy="4"/>
<feGaussianBlur stdDeviation="6"/>
<feColorMatrix type="matrix" values="0 0 0 0 0.161778 0 0 0 0 0.0938889 0 0 0 0 0.433333 0 0 0 0.2 0"/>
<feBlend mode="normal" in2="BackgroundImageFix" result="effect1_dropShadow_3_184"/>
<feBlend mode="normal" in="SourceGraphic" in2="effect1_dropShadow_3_184" result="shape"/>
</filter>
</defs>
</svg>
