<svg width="88" height="88" viewBox="0 0 88 88" fill="none" xmlns="http://www.w3.org/2000/svg">
<g filter="url(#filter0_d_3_185)">
<rect x="12" y="8" width="64" height="64" rx="16" fill="#84B5FF"/>
</g>
<path d="M55.5934 20L41.103 24.2574L38.9583 28.4073L34.6065 28.3718L24 40.0025L34.6065 51.6314L38.9562 51.5957L41.1055 55.7428L55.5934 60L59.4747 44.1168L57.2694 40.0025L59.4747 35.8888L55.5934 20ZM39.3074 29.0751L50.3917 25.9511L44.029 38.0379H31.3016L39.3074 29.0751ZM39.3074 50.9277L31.3016 41.9651H44.029L50.3917 54.0515L39.3074 50.9277ZM53.4936 52.0868L47.1287 40.0025L53.4936 27.9135L56.5672 40.0025L53.4936 52.0868Z" fill="white"/>
<defs>
<filter id="filter0_d_3_185" x="0" y="0" width="88" height="88" filterUnits="userSpaceOnUse" color-interpolation-filters="sRGB">
<feFlood flood-opacity="0" result="BackgroundImageFix"/>
<feColorMatrix in="SourceAlpha" type="matrix" values="0 0 0 0 0 0 0 0 0 0 0 0 0 0 0 0 0 0 127 0" result="hardAlpha"/>
<feOffset dy="4"/>
<feGaussianBlur stdDeviation="6"/>
<feColorMatrix type="matrix" values="0 0 0 0 0.161778 0 0 0 0 0.0938889 0 0 0 0 0.433333 0 0 0 0.2 0"/>
<feBlend mode="normal" in2="BackgroundImageFix" result="effect1_dropShadow_3_185"/>
<feBlend mode="normal" in="SourceGraphic" in2="effect1_dropShadow_3_185" result="shape"/>
</filter>
</defs>
</svg>
